<?xml version="1.0" encoding="utf-8"?>
<!-- Generator: Adobe Illustrator 24.0.1, SVG Export Plug-In . SVG Version: 6.00 Build 0)  -->
<svg version="1.1" id="Camada_1" xmlns="http://www.w3.org/2000/svg" xmlns:xlink="http://www.w3.org/1999/xlink" x="0px" y="0px"
	 viewBox="0 0 1080 1080" style="enable-background:new 0 0 1080 1080;" xml:space="preserve">
<style type="text/css">
	.st0{fill:#FF8500;}
</style>
<g>
	<path class="st0" d="M635.4,689.3c31.5-23.6,66.4-39,105-46.8c128.1-25.8,260.3,63,284.2,191.5c2.6,14.2,4.2,28.8,4.7,43.3
		c1.3,34.1-18.8,54.5-53.2,54.6c-62.4,0.2-124.8,0-187.2,0c-17.2,0-34.4,0-51.9,0c-1.3,5.5-2.2,10.3-3.6,14.9
		c-6.8,21.3-24.9,33.9-49.1,34c-59.3,0.1-118.7,0-178,0c-133.2,0-266.5,0-399.7,0c-37.6,0-56.5-19.2-55.9-56.6
		c2.5-167.6,133.1-312.7,298.9-331.7c106.8-12.1,200,18.5,279.4,91.3C631,685.6,633.1,687.3,635.4,689.3z"/>
	<path class="st0" d="M197.4,294.2C198.2,185,286.1,98.1,394.7,99s194.6,89.2,193.7,198.7c-0.8,106.9-90.1,194.2-197.3,193
		C283.4,489.5,196.7,401.6,197.4,294.2z"/>
	<path class="st0" d="M784.2,588.4c-80.6-0.2-145.8-65.6-145.7-146.3c0.1-81.5,65.5-147.4,146.2-147.3
		c81.1,0.1,146.9,65.7,147.2,146.6C932.1,523,866.2,588.6,784.2,588.4z"/>
</g>
</svg>
