<svg id="Camada_1" data-name="Camada 1" xmlns="http://www.w3.org/2000/svg" viewBox="0 0 1080 1080"><defs><style>.cls-1{fill:#f4f4f4;}</style></defs><title>Prancheta 1</title><path class="cls-1" d="M542.36,90.18C273.68,90.18,87.9,309.23,90,539.82,88.26,778.39,280.14,984.89,530.12,990.14c243.66,5.13,450-182.18,459.43-432.86C999.51,293,787.71,90.18,542.36,90.18ZM813.91,821.27c-48.86-127.49-139.83-197.85-277.76-204.7C401.26,624,310.41,691.77,261.21,816.75,173.58,734.49,113.77,580,164.42,421.31,215.26,262,359.2,149.4,533.64,146.39c185.21-3.2,330,116.23,381.4,275C965.33,576.64,908.4,733.87,813.91,821.27Z"/><path class="cls-1" d="M532.74,234.16C439,237.09,366.56,313.63,369,407c2.66,100.58,90,167,166.73,162,49,1.62,88.39-16.67,121.14-49.6,33-33.15,48.94-73.91,47.87-120.54C702.6,305.3,624.86,231.28,532.74,234.16Z"/></svg>