<svg id="Camada_1" data-name="Camada 1" xmlns="http://www.w3.org/2000/svg" viewBox="0 0 1080 1080"><defs><style>.cls-1{fill:#83c5be;}.cls-2{fill:#006d77;}.cls-3{fill:#edf6f9;}</style></defs><title>Prancheta 1</title><path class="cls-1" d="M532.27,653.47c-5.64-.73-8.36-.18-9.47,2.64-.85-3.48-3.45-3.91-9.65-3.11-13.43,37-36.95,62.44-75.66,73-11.25,3-21.84,2.06-34.34,2,7,23.71,11.52,48.5,11.53,72.79,0,5,3.21,5.22,6.47,5.21,33.85-.1,68-.85,101.85-1v.48l102,.33c3.26,0,6.74.43,6.74-4.57,0-24.3,5.53-47.72,12.48-71.43-12.51,0-24-.36-35.29-3.41C570.17,715.92,545.69,690.51,532.27,653.47Z"/><path class="cls-2" d="M826.26,384.78c-4.43-5-4.94-9-3.32-15.33,10.52-41-11.3-83.47-50.69-99.17-5.1-2-7.78-4.11-8.86-10.19-8-44.9-42.14-71.64-87.3-68.11-7.51.59-10.58-1.86-14.32-7.44-17-25.35-47-37.22-75.8-30.69-36,8.13-57.83,36.67-57.86,76.33Q527.94,414.58,528,599c0,18.14-.08,36.25,4,54.07,13.42,37,37.9,62.45,76.61,73,11.26,3.06,22.78,3.43,35.29,3.42-7,23.71-12.46,47.13-12.47,71.43,0,5-3.49,4.58-6.75,4.57q-51-.15-102-.34-64.17.18-128.35.38c-17.5.08-26,8.59-26.1,26.18-.14,22.12-.05,44.24,0,66.37,0,23,7.52,30.61,30.6,30.62q124,.08,248.05,0c21.73,0,29.65-7.77,29.86-29.33.3-30.82.26-61.65.62-92.47C678,761,692,720.15,722,685c6.1-7.14,12.68-11.88,22.05-14.25a106.71,106.71,0,0,0,77.73-129c-1.4-5.8-.87-9.69,3.42-14.46C862.5,486,862.91,426.47,826.26,384.78ZM610.82,882.17c-62,0-123.93-.16-185.89.19-8.45,0-11.11-2.05-10.87-10.75.57-20.17.1-20.18,20.79-20.18H524c32.62,0,65.23.23,97.84-.17,7.54-.09,9.86,1.89,9.76,9.62C631.3,882.16,631.67,882.17,610.82,882.17ZM783.54,502.7C767,516,765.69,521.51,773.76,540.9c18.69,44.94-12.38,88.21-61.6,85.78-10.49,2.19-16.55,8.65-20.85,18.49-12.64,28.91-40,42.75-69.87,36.37-28.12-6-46.77-29.93-46.8-61.07q-.18-195.72,0-391.45c0-15.22,5.5-24.32,16.81-28.74a27.33,27.33,0,0,1,29.94,6.7c5.12,5.42,7.69,10.43,1.67,17.74-9.44,11.47-13.45,25.51-14.81,40.19-1.44,15.61,6.58,26.73,20.24,28.55,13.12,1.75,23.61-7.58,25.66-23.29,1.91-14.74,7.69-26.27,23.26-30.46,20.61-10.15,45.26,11.38,40.91,35.69-4.23,23.58,1.94,31.53,26,34.26,23.43,2.66,38,20.68,35.65,43.54-.6,5.75-2.51,8.69-8.7,8.13a50.56,50.56,0,0,0-10.86.21c-12,1.47-20.13,11.2-19.85,23.29a22.52,22.52,0,0,0,19.91,22.22c1.43.18,2.92,0,4.34.19,8.57,1.38,18.1-3.5,25.69,4.52,10.38,11,16.56,23.85,17.31,38.86C808.81,472.06,800.15,489.28,783.54,502.7Z"/><path class="cls-2" d="M383.54,327.5c.82-12.91-7.65-22.93-20.86-24.64-1.44-.19-2.9-.1-4.35-.24-14.05-1.39-24.4-9.52-28-21.94-4.26-14.8-.22-28.44,11-37.09,10.76-8.31,25.63-9,37.67-1.63,20.94,12.75,36.19,5.26,39.47-19.37,1.88-14.05,12.7-24.05,26.28-24.28s24.61,9.15,26.85,23.45a84.21,84.21,0,0,1,.64,13q0,189.32,0,378.62c0,43.27-19.81,65.26-63.07,70.12-12.49,1.41-21.41,11.41-21,23.51s9.78,21.58,22.39,22.22c9.13.46,18.06-1,26.87-3.3,49.16-12.81,79.84-54,80-108.18.23-63.83.06-127.66.06-191.49q0-96.28,0-192.57a162.38,162.38,0,0,0-.82-17.37c-3.26-30.42-24.21-54.61-54-62.54-28.71-7.66-59.86,2.78-76.85,27.54-6,8.78-11.81,10.61-21.91,9.8-43.36-3.49-81.68,32.59-82.78,76.85-1.09,43.9,36.11,81.8,79.18,80.66C373.58,348.3,382.75,339.9,383.54,327.5Z"/><path class="cls-2" d="M329,627.21c-27.86-1.37-46.77-14.76-57.77-40.31-5.66-13.16-18.14-18.16-30.32-13.25-12.55,5.07-17.48,17.65-12.38,31.61,14.09,38.6,53,66.57,94,67.66,17,.45,27.76-7.63,28.54-21.38C351.87,638.09,343.14,627.9,329,627.21Z"/><path class="cls-2" d="M740.44,515.52c-24.57.33-43.21-10-55.54-31.29-5-8.56-7.13-18-7.59-28-.69-15.1-10.07-24.62-23.49-24.41-13.66.22-22.62,10.7-22.28,26.41a91.63,91.63,0,0,0,1.38,15.08c9.32,48.93,42.4,79.15,96.69,88.55,1.45-.08,2.89-.23,4.33-.24,15.27-.14,24.54-6.7,26.43-18.72C762.56,529.06,756.3,520.46,740.44,515.52Z"/><path class="cls-2" d="M653.41,347c-.2-12.36-10.94-22.57-23.44-22.27A22.73,22.73,0,0,0,607.59,348a22.92,22.92,0,0,0,45.82-.91Z"/><path class="cls-1" d="M807.74,450.62c-.75-15-6.93-27.88-17.31-38.86-7.59-8-17.12-3.14-25.69-4.52-1.42-.23-2.91,0-4.34-.19a22.52,22.52,0,0,1-19.91-22.22c-.28-12.09,7.9-21.82,19.85-23.29a50.56,50.56,0,0,1,10.86-.21c6.19.56,8.1-2.38,8.7-8.13,2.36-22.86-12.22-40.88-35.65-43.54-24-2.73-30.19-10.68-26-34.26,4.35-24.31-20.3-45.84-40.91-35.69-15.57,4.19-21.35,15.72-23.26,30.46-2,15.71-12.54,25-25.66,23.29-13.66-1.82-21.68-12.94-20.24-28.55,1.36-14.68,5.37-28.72,14.81-40.19,6-7.31,3.45-12.32-1.67-17.74a27.33,27.33,0,0,0-29.94-6.7c-11.31,4.42-16.81,13.52-16.81,28.74q-.06,195.72,0,391.45c0,31.14,18.68,55.07,46.8,61.07,29.91,6.38,57.23-7.46,69.87-36.37,4.3-9.84,10.36-16.3,20.85-18.49,49.22,2.43,80.29-40.84,61.6-85.78-8.07-19.39-6.73-24.86,9.78-38.2S808.81,472.06,807.74,450.62ZM607.59,348A22.73,22.73,0,0,1,630,324.77c12.5-.3,23.24,9.91,23.44,22.27a22.92,22.92,0,0,1-45.82.91Zm152.78,195c-1.89,12-11.16,18.58-26.43,18.72-1.44,0-2.88.16-4.33.24-54.29-9.4-87.37-39.62-96.69-88.55a91.63,91.63,0,0,1-1.38-15.08c-.34-15.71,8.62-26.19,22.28-26.41,13.42-.21,22.8,9.31,23.49,24.41.46,10,2.62,19.41,7.59,28,12.33,21.24,31,31.62,55.54,31.29C756.3,520.46,762.56,529.06,760.37,542.93Z"/><path class="cls-3" d="M163.16,452.84H145.61V320.11q0-2.82,1.88-16.48L113.2,433.15h-3.75L75.16,303.63Q77,317.43,77,320.11V452.84H59.49V243.23H76.77l34,136.34a50.87,50.87,0,0,1,.53,6,49.69,49.69,0,0,1,.54-6l34-136.34h17.28Z"/><path class="cls-3" d="M216.33,452.84H197.71V243.23h18.62Z"/><path class="cls-3" d="M337.68,452.84H324.82l-56-154.16V452.84H251.29V243.23h13.93l54.91,151.48V243.23h17.55Z"/><path class="cls-3" d="M457.56,414.94q0,16.6-10.92,27.25t-27.53,10.65H371.16V243.23h47.95q16.75,0,27.6,10.64t10.85,27.26Zm-18.62-1.88V282.74q0-10.32-6.5-16.68t-16.81-6.36H389.78V436.37h24.78q10.85,0,17.61-6.23T438.94,413.06Z"/><path class="cls-3" d="M194.24,542.6a5.19,5.19,0,0,1-1.55,3.89,5.43,5.43,0,0,1-3.94,1.51H169.14a5.17,5.17,0,0,1-5.4-5.4V477.27a5.17,5.17,0,0,1,5.4-5.4h19.61a5.43,5.43,0,0,1,3.94,1.51,5.19,5.19,0,0,1,1.55,3.89V495h-6.81V477.85H170.5V542h16.93V523.29h6.81Z"/><path class="cls-3" d="M236.76,548h-6.71l-2.68-16.93H212.24L209.57,548h-6.52v-.19l13.57-76.14h6.66Zm-10.27-22.91-6.66-41.25-6.71,41.25Z"/><path class="cls-3" d="M276.06,512.34a5.24,5.24,0,0,1-5.44,5.45h-18V548H245.9V471.87h24.72a5.31,5.31,0,0,1,3.91,1.51,5.21,5.21,0,0,1,1.53,3.89Zm-6.76-.58V477.85H252.67v33.91Z"/><path class="cls-3" d="M317.46,548h-6.71l-2.68-16.93H292.94L290.27,548h-6.52v-.19l13.57-76.14H304ZM307.2,525.09l-6.67-41.25-6.71,41.25Z"/><path class="cls-3" d="M357.11,542.6a5.16,5.16,0,0,1-1.56,3.89,5.42,5.42,0,0,1-3.94,1.51H332a5.17,5.17,0,0,1-5.4-5.4V477.27a5.17,5.17,0,0,1,5.4-5.4h19.6a5.42,5.42,0,0,1,3.94,1.51,5.16,5.16,0,0,1,1.56,3.89V495H350.3V477.85H333.37V542H350.3V523.29h6.81Z"/><path class="cls-3" d="M376.08,548h-6.76V471.87h6.76Z"/><path class="cls-3" d="M415,477.85H403.23V548h-6.77V477.85H384.59v-6H415Z"/><path class="cls-3" d="M453.53,472.31l-9.25,30.79q-1.75,4.62-4.62,15.42V548H432.9V518.52a54.62,54.62,0,0,0-2.09-7.78q-2.34-7-2.53-7.64L419,472.31v-.44h6.85L436.35,510l10.36-38.09h6.82Z"/></svg>